<svg id="visual" viewBox="0 0 1920 1080" width="1920" height="1080" xmlns="http://www.w3.org/2000/svg" xmlns:xlink="http://www.w3.org/1999/xlink" version="1.1"><path d="M0 228L175 152L349 195L524 77L698 185L873 185L1047 185L1222 163L1396 195L1571 185L1745 217L1920 228L1920 0L1745 0L1571 0L1396 0L1222 0L1047 0L873 0L698 0L524 0L349 0L175 0L0 0Z" fill="#f7770f"></path><path d="M0 660L175 390L349 563L524 379L698 422L873 422L1047 401L1222 660L1396 444L1571 649L1745 476L1920 660L1920 226L1745 215L1571 183L1396 193L1222 161L1047 183L873 183L698 183L524 75L349 193L175 150L0 226Z" fill="#f98619"></path><path d="M0 843L175 822L349 800L524 746L698 703L873 735L1047 865L1222 887L1396 779L1571 833L1745 843L1920 876L1920 658L1745 474L1571 647L1396 442L1222 658L1047 399L873 420L698 420L524 377L349 561L175 388L0 658Z" fill="#fa9424"></path><path d="M0 908L175 973L349 962L524 865L698 854L873 854L1047 941L1222 951L1396 919L1571 908L1745 962L1920 995L1920 874L1745 841L1571 831L1396 777L1222 885L1047 863L873 733L698 701L524 744L349 798L175 820L0 841Z" fill="#fba230"></path><path d="M0 1081L175 1081L349 1081L524 1081L698 1081L873 1081L1047 1081L1222 1081L1396 1081L1571 1081L1745 1081L1920 1081L1920 993L1745 960L1571 906L1396 917L1222 949L1047 939L873 852L698 852L524 863L349 960L175 971L0 906Z" fill="#fcaf3c"></path></svg>